<svg width="1011" height="559" viewBox="0 0 1011 559" fill="none" xmlns="http://www.w3.org/2000/svg">
<path d="M258.473 0.373295C256.573 0.573295 250.673 1.27329 245.473 1.87329C157.973 11.6733 78.4731 65.3733 34.5731 144.273C-7.82686 220.473 -11.4269 314.173 24.8731 394.573C45.8731 441.073 82.0731 483.573 124.973 511.873C204.673 564.473 306.073 572.973 392.673 534.273C433.173 516.173 468.773 488.773 496.473 454.473L505.673 442.973L513.773 453.173C530.273 473.973 555.473 496.973 577.973 511.873C665.073 569.373 777.273 573.773 867.873 523.173C934.973 485.773 984.373 421.673 1002.87 347.973C1009.27 322.373 1010.87 308.773 1010.87 279.273C1010.87 250.873 1009.77 239.773 1004.47 216.773C995.173 175.873 976.273 136.773 949.873 103.773C940.973 92.6733 918.273 69.9733 907.473 61.3733C867.573 29.5733 821.273 9.6733 769.973 2.07329C753.073 -0.426705 711.873 -0.326705 694.973 2.07329C641.173 10.0733 595.973 29.7733 555.473 62.8733C541.473 74.2733 524.873 91.0733 514.273 104.473C509.773 110.073 505.773 114.773 505.473 114.773C505.173 114.773 503.673 112.873 501.973 110.473C496.573 102.873 481.973 86.4733 472.373 77.2733C430.273 37.0733 378.273 11.5733 319.973 2.67329C307.573 0.773295 267.973 -0.726705 258.473 0.373295ZM310.473 33.7733C357.473 40.4733 398.873 58.0733 434.373 86.7733C445.673 95.9733 464.673 115.073 473.273 126.073C501.073 161.373 518.073 202.173 524.673 249.273C526.073 259.173 526.373 296.273 525.173 304.373L524.473 309.473L540.073 311.673C548.673 312.873 555.873 313.673 556.073 313.473C557.473 312.073 558.673 288.573 558.173 271.273C556.973 228.673 547.473 190.673 528.973 153.773L524.573 144.973L530.073 136.973C547.073 112.173 574.973 85.7733 601.573 69.2733C691.273 13.7733 805.673 20.7733 887.373 86.7733C898.673 95.9733 917.673 115.073 926.273 126.073C954.073 161.373 970.973 201.973 977.673 249.273C979.573 262.873 979.273 298.573 977.073 313.273C960.173 426.673 871.073 512.573 757.673 524.773C741.373 526.573 707.373 525.573 692.173 522.873C665.773 518.173 647.273 512.173 623.973 500.873C597.073 487.673 576.773 472.973 555.373 451.173C535.473 430.673 523.073 413.073 510.373 387.273C498.873 363.573 492.273 342.873 487.873 316.073C485.873 304.173 485.273 264.073 486.773 249.673L487.573 241.973L478.773 241.373C473.973 240.973 466.773 240.473 462.873 240.173L455.773 239.573L455.073 243.773C454.673 246.073 453.973 254.973 453.473 263.373C451.173 298.973 456.873 338.773 469.273 373.373C473.473 384.973 482.473 405.473 484.973 409.073C485.773 410.273 486.473 411.873 486.473 412.773C486.473 413.673 482.273 419.973 477.073 426.773C435.073 482.573 373.973 517.373 304.673 524.773C288.373 526.573 254.373 525.573 239.173 522.873C212.773 518.173 194.273 512.173 170.973 500.873C144.073 487.673 123.773 472.973 102.373 451.173C82.4731 430.673 70.0731 413.073 57.3731 387.273C46.0731 364.073 40.0731 345.473 35.3731 319.073C32.6731 303.873 31.6731 269.873 33.4731 253.573C37.8731 212.473 50.9731 176.273 73.9731 141.773C114.973 79.9733 181.373 40.4733 256.973 32.7733C267.773 31.6733 299.973 32.2733 310.473 33.7733Z" fill="white"/>
<path d="M275.973 136.973C270.873 139.873 269.873 146.273 273.973 150.273C278.973 155.373 287.473 152.073 287.473 145.073C287.473 140.573 286.573 138.873 283.373 137.273C280.073 135.473 278.673 135.473 275.973 136.973Z" fill="white"/>
<path d="M721.173 138.873C711.873 139.873 694.973 143.773 687.473 146.773C665.073 155.573 644.373 170.473 628.873 189.073C615.273 205.173 608.773 216.773 602.473 235.673C596.873 252.373 595.073 266.273 595.773 286.773C596.573 309.873 600.273 325.373 609.573 344.273C622.373 370.273 646.673 395.173 672.473 408.673C692.673 419.273 713.373 424.073 738.473 424.073C756.473 424.073 768.873 422.273 784.073 417.273C801.973 411.373 819.673 401.073 832.673 388.773L839.573 382.273L817.173 359.873L794.773 337.573L790.873 341.073C768.373 361.173 733.673 366.373 705.673 353.673C692.073 347.573 677.373 334.273 669.573 321.073C655.873 297.773 655.673 265.073 669.173 241.773C671.373 237.973 677.073 231.073 682.973 225.273C693.973 214.173 702.373 208.973 716.473 204.673C726.273 201.573 748.273 201.273 758.473 204.073C768.073 206.673 778.973 212.173 787.273 218.473L794.673 224.073L817.073 201.673L839.573 179.273L834.273 174.573C803.373 146.873 763.773 134.373 721.173 138.873Z" fill="white"/>
<path d="M199.473 145.473C195.073 147.073 193.973 154.573 197.673 157.173C202.473 160.573 208.473 157.873 208.473 152.473C208.473 148.673 207.773 147.473 204.773 145.873C202.473 144.673 201.773 144.673 199.473 145.473Z" fill="white"/>
<path d="M353.173 146.773C349.873 149.373 349.573 153.873 352.473 156.773C356.773 161.073 363.773 157.973 363.773 151.673C363.773 145.973 357.773 143.173 353.173 146.773Z" fill="white"/>
<path d="M472.073 173.273C462.973 182.673 457.473 196.573 457.373 210.273C457.373 217.273 459.773 231.473 461.173 232.873C462.273 233.873 482.373 235.873 483.673 235.173C485.273 234.173 488.973 225.173 491.473 216.273C494.973 203.873 493.573 191.473 487.373 179.073C484.873 174.173 479.773 167.773 478.273 167.773C477.773 167.773 474.973 170.273 472.073 173.273ZM480.373 187.773C481.373 188.273 482.773 189.973 483.373 191.673C484.373 194.073 484.373 195.073 483.073 197.573C480.373 202.873 474.973 203.373 471.073 198.673C467.973 195.073 468.273 192.473 472.073 188.973C474.773 186.573 477.473 186.173 480.373 187.773ZM477.873 209.373C478.873 212.073 478.573 213.673 476.573 214.773C472.873 216.673 470.073 214.073 471.573 209.973C472.573 207.373 476.973 206.873 477.873 209.373Z" fill="white"/>
<path d="M218.973 176.673C215.673 178.073 213.373 181.373 212.773 185.673C212.273 189.373 212.573 190.073 215.873 193.373C219.273 196.773 219.873 196.973 224.173 196.473C230.373 195.773 233.473 192.373 233.473 186.473C233.373 178.573 226.273 173.773 218.973 176.673Z" fill="white"/>
<path d="M330.973 177.073C323.773 180.373 323.773 192.273 330.973 195.573C341.673 200.473 351.473 188.373 343.773 179.773C340.473 176.173 335.373 175.073 330.973 177.073Z" fill="white"/>
<path d="M270.973 188.073C262.473 196.573 267.673 209.773 279.573 209.773C283.773 209.773 285.073 209.273 288.273 206.373C291.673 203.173 291.973 202.573 291.973 197.273C291.973 191.973 291.673 191.373 288.273 188.173C284.973 185.273 283.773 184.773 279.373 184.773C274.973 184.773 273.873 185.173 270.973 188.073Z" fill="white"/>
<path d="M151.973 209.273C148.873 212.273 148.773 216.573 151.573 220.173C153.173 222.273 154.473 222.773 157.973 222.773C161.473 222.773 162.773 222.273 164.373 220.173C168.873 214.473 165.173 206.773 157.973 206.773C155.473 206.773 153.573 207.573 151.973 209.273Z" fill="white"/>
<path d="M396.673 207.473C394.473 208.373 392.273 213.773 392.973 216.873C393.773 220.573 396.973 222.773 401.573 222.773C408.673 222.773 412.073 214.273 406.973 209.273C404.673 206.873 400.073 206.073 396.673 207.473Z" fill="white"/>
<path d="M735.373 215.473C734.873 216.973 730.973 227.273 726.673 238.273L718.973 258.273L710.973 258.573C704.273 258.773 702.673 259.173 701.273 260.873C699.073 263.473 699.073 264.173 701.073 266.173C702.073 267.273 704.473 267.773 708.073 267.773C714.673 267.773 715.273 268.773 712.573 275.073L710.573 279.773H701.673C692.373 279.773 690.473 280.573 690.473 284.273C690.473 287.773 692.473 288.773 699.673 288.773C703.373 288.773 706.473 289.073 706.473 289.373C706.473 290.173 703.273 298.673 697.073 314.773C693.273 324.673 692.873 326.573 693.973 328.273C695.473 330.673 699.673 331.373 701.173 329.573C701.773 328.873 705.273 320.373 708.873 310.773C712.573 301.173 715.973 292.273 716.473 290.973L717.473 288.773L740.573 288.973L763.673 289.273L771.773 309.773L779.973 330.273H783.373C789.673 330.273 789.573 328.673 781.673 308.573C777.673 298.573 774.473 289.973 774.473 289.473C774.473 289.073 777.573 288.773 781.273 288.773C788.473 288.773 790.473 287.773 790.473 284.273C790.473 280.573 788.573 279.773 779.173 279.773H770.373L768.073 274.473C766.773 271.673 765.873 268.973 766.173 268.473C766.373 268.073 769.173 267.773 772.373 267.773C778.473 267.773 780.473 266.673 780.473 263.273C780.473 259.573 778.473 258.773 769.873 258.773H761.673L755.973 243.973C743.673 212.373 744.073 213.273 740.073 212.973C736.873 212.673 736.273 212.973 735.373 215.473ZM746.373 245.673C749.173 252.473 751.473 258.173 751.473 258.373C751.473 259.173 729.473 258.773 729.473 257.973C729.473 257.573 731.773 251.273 734.673 243.973C737.773 235.873 740.173 231.173 740.573 231.973C740.973 232.673 743.573 238.873 746.373 245.673ZM757.173 272.773C758.373 275.273 759.373 277.873 759.473 278.473C759.473 279.473 755.073 279.773 740.473 279.773C728.773 279.773 721.473 279.373 721.473 278.773C721.473 277.073 724.773 269.273 725.873 268.573C726.473 268.073 733.273 267.873 740.973 268.073L754.973 268.273L757.173 272.773Z" fill="white"/>
<path d="M244.373 222.073C241.973 223.373 238.673 226.373 236.973 228.673C234.573 232.073 233.973 234.073 233.673 239.573C233.373 247.473 235.473 252.073 241.773 257.173C245.373 260.073 246.173 260.273 253.973 260.273C261.773 260.273 262.573 260.073 266.173 257.173C272.473 252.073 274.573 247.473 274.273 239.573C273.973 234.073 273.373 232.073 270.973 228.673C264.973 220.173 253.373 217.373 244.373 222.073Z" fill="white"/>
<path d="M295.573 222.073C289.073 225.373 285.373 231.173 284.773 238.973C284.273 246.573 286.773 252.373 292.773 257.173C296.373 260.073 297.173 260.273 304.873 260.273C312.373 260.273 313.573 259.973 317.273 257.373C327.673 250.173 328.673 233.773 319.273 225.073C313.373 219.473 303.173 218.173 295.573 222.073Z" fill="white"/>
<path d="M446.273 223.773C443.173 229.073 441.473 234.873 441.473 239.773L441.573 243.273L443.273 240.473C444.173 238.873 446.673 236.773 448.773 235.673C452.873 233.573 452.773 234.573 449.973 223.773L448.873 219.273L446.273 223.773Z" fill="white"/>
<path d="M494.973 231.473C492.673 236.773 492.373 238.273 493.473 238.573C496.073 239.473 499.473 243.773 500.173 246.973C500.873 250.173 500.873 250.173 501.573 247.773C503.173 242.073 501.373 228.273 498.673 225.573C498.173 225.073 496.573 227.473 494.973 231.473Z" fill="white"/>
<path d="M195.573 231.273C189.573 236.473 189.273 245.373 195.073 250.873C197.173 252.873 198.673 253.273 203.473 253.273C208.273 253.273 209.773 252.873 211.873 250.873C220.473 242.773 215.173 228.773 203.473 228.773C199.773 228.773 197.973 229.373 195.573 231.273Z" fill="white"/>
<path d="M348.773 230.773C344.773 233.173 343.173 236.173 343.173 241.373C343.173 252.973 357.273 258.073 365.173 249.373C368.973 245.273 369.473 240.773 366.973 235.373C363.973 229.073 355.173 226.773 348.773 230.773Z" fill="white"/>
<path d="M223.373 265.673C215.473 267.273 209.573 272.873 207.373 281.073C204.073 293.573 214.573 306.773 227.873 306.773C242.473 306.673 252.673 290.573 246.573 277.273C242.673 268.673 233.073 263.873 223.373 265.673Z" fill="white"/>
<path d="M326.773 265.773C312.273 269.173 305.873 286.273 314.773 298.073C322.873 308.673 338.073 309.473 346.873 299.673C354.573 291.173 354.173 279.473 346.073 271.273C342.773 267.973 340.573 266.773 336.573 265.873C330.873 264.673 331.273 264.673 326.773 265.773Z" fill="white"/>
<path d="M161.873 274.773C158.673 276.073 155.473 280.673 155.473 283.973C155.473 293.573 166.873 298.573 173.573 291.873C177.873 287.573 177.673 281.773 173.073 277.173C169.573 273.673 166.273 272.973 161.873 274.773Z" fill="white"/>
<path d="M386.673 276.273C378.973 282.673 383.073 294.773 392.973 294.773C402.073 294.773 406.773 284.473 400.773 277.773C396.673 273.273 390.973 272.673 386.673 276.273Z" fill="white"/>
<path d="M121.073 280.273C118.473 282.973 118.173 285.873 120.173 288.673C122.673 291.873 127.773 292.673 130.573 290.173C132.973 287.973 133.073 282.573 130.673 280.473C128.373 278.373 123.073 278.273 121.073 280.273Z" fill="white"/>
<path d="M428.073 280.973C424.573 285.873 427.373 291.773 433.073 291.773C439.273 291.773 442.473 285.973 438.873 280.973C437.773 279.373 436.373 278.773 433.473 278.773C430.573 278.773 429.173 279.373 428.073 280.973Z" fill="white"/>
<path d="M511.073 303.973C510.073 307.773 510.573 317.973 511.873 322.273L513.173 326.273L514.273 323.573C514.873 322.073 516.473 319.073 517.873 316.873L520.373 312.973L517.873 311.273C516.473 310.373 514.473 307.873 513.473 305.673C511.873 301.973 511.673 301.873 511.073 303.973Z" fill="white"/>
<path d="M248.073 309.773C239.173 312.473 233.473 320.373 233.473 329.973C233.473 343.473 244.873 352.673 258.173 349.973C268.273 347.873 274.473 340.173 274.473 329.973C274.473 323.073 272.673 319.073 267.673 314.573C261.973 309.373 255.073 307.673 248.073 309.773Z" fill="white"/>
<path d="M297.973 310.273C283.773 315.673 279.973 333.573 290.873 344.373C296.173 349.773 301.873 351.473 309.273 349.973C315.973 348.573 319.773 345.873 323.173 340.073C332.773 323.673 315.773 303.573 297.973 310.273Z" fill="white"/>
<path d="M568.073 315.373C566.473 317.273 563.873 319.173 562.373 319.473C559.073 320.073 559.073 319.973 560.573 328.573L561.673 334.973L564.073 332.173C566.473 329.073 569.973 320.473 570.873 314.973C571.173 313.273 571.273 311.773 571.173 311.873C571.073 311.873 569.673 313.473 568.073 315.373Z" fill="white"/>
<path d="M200.473 316.873C196.173 317.773 191.773 322.473 190.973 327.073C190.073 331.673 192.573 337.273 196.673 339.773C209.273 347.373 222.573 331.573 212.673 320.673C209.473 317.173 205.273 315.873 200.473 316.873Z" fill="white"/>
<path d="M525.873 319.973C524.373 322.373 521.573 328.173 519.773 332.973C516.273 342.273 515.373 351.573 516.973 362.073C517.873 368.173 525.373 383.173 527.773 383.573C528.873 383.773 532.173 381.273 536.873 376.573C544.573 368.873 548.173 362.573 551.073 352.073C552.873 345.373 553.073 331.573 551.373 324.573C550.173 319.473 550.173 319.473 535.973 317.173C533.773 316.873 531.173 316.373 530.273 316.173C529.073 315.773 527.773 316.973 525.873 319.973ZM538.473 338.273C540.173 340.373 538.273 344.773 535.673 344.773C533.473 344.773 531.473 342.873 531.473 340.773C531.473 337.073 536.173 335.473 538.473 338.273ZM537.773 352.973C541.173 356.973 539.473 362.873 534.373 364.673C530.073 366.173 530.173 366.173 527.073 363.173C523.473 359.473 523.673 355.673 527.673 352.273C531.273 349.273 534.773 349.473 537.773 352.973Z" fill="white"/>
<path d="M350.473 317.473C347.473 318.573 344.473 322.273 343.373 325.973C342.073 331.073 344.873 337.873 349.373 340.173C361.073 346.273 373.573 332.873 366.273 322.173C364.973 320.373 362.973 318.373 361.673 317.873C359.273 316.773 353.073 316.573 350.473 317.473Z" fill="white"/>
<path d="M154.473 348.073C151.073 349.773 148.973 353.773 149.873 357.073C151.473 363.573 158.973 365.873 163.873 361.273C170.473 355.173 162.473 343.873 154.473 348.073Z" fill="white"/>
<path d="M397.473 348.073C392.073 350.873 391.373 357.973 396.173 361.773C404.073 367.973 413.873 357.773 407.273 350.373C404.473 347.273 400.773 346.373 397.473 348.073Z" fill="white"/>
<path d="M274.873 361.173C267.973 364.273 265.273 371.173 268.273 378.173C272.773 388.273 286.873 388.273 291.173 378.073C293.973 371.173 290.973 364.173 283.773 361.173C279.873 359.473 278.873 359.473 274.873 361.173Z" fill="white"/>
<path d="M217.873 374.873C215.373 376.173 212.473 380.873 212.473 383.773C212.473 389.973 219.473 395.573 225.573 394.273C229.873 393.273 233.473 388.473 233.473 383.573C233.473 375.973 225.173 371.373 217.873 374.873Z" fill="white"/>
<path d="M328.373 376.673C324.273 380.773 324.273 386.473 328.373 390.973C330.873 393.773 331.973 394.273 335.973 394.273C339.973 394.273 341.073 393.773 343.573 390.973C346.873 387.273 347.273 383.273 344.973 378.773C343.073 375.073 340.673 373.773 335.473 373.773C332.173 373.773 330.673 374.373 328.373 376.673Z" fill="white"/>
<path d="M197.073 413.673C194.573 416.373 195.373 421.573 198.573 423.973C200.673 425.573 201.573 425.673 203.973 424.773C205.573 424.173 207.273 423.073 207.673 422.473C209.073 420.273 208.473 415.073 206.673 413.473C204.173 411.173 199.173 411.373 197.073 413.673Z" fill="white"/>
<path d="M352.173 413.573C346.973 419.273 353.673 427.773 360.573 424.273C363.273 422.773 364.073 420.873 363.473 416.773C362.873 412.073 355.373 409.973 352.173 413.573Z" fill="white"/>
<path d="M277.973 417.573C271.773 418.873 269.173 427.273 273.773 431.573C276.773 434.473 282.673 434.573 285.473 431.773C287.673 429.573 288.173 423.973 286.473 420.773C285.373 418.673 280.873 416.973 277.973 417.573Z" fill="white"/>
</svg>
